<svg width="128.000000" height="128.000000" viewBox="0 0 128 128" fill="none" xmlns="http://www.w3.org/2000/svg" xmlns:xlink="http://www.w3.org/1999/xlink">
	<desc>
			Created with Pixso.
	</desc>
	<defs>
		<clipPath id="clip1_2673">
			<rect id="icon / outlined / other / tech / command" rx="0.000000" width="127.000000" height="127.000000" transform="translate(0.500000 0.500000)" fill="white" fill-opacity="0"/>
		</clipPath>
	</defs>
	<rect id="icon / outlined / other / tech / command" rx="0.000000" width="127.000000" height="127.000000" transform="translate(0.500000 0.500000)" fill="#FFFFFF" fill-opacity="0"/>
	<g clip-path="url(#clip1_2673)">
		<path id="Vector" d="M84.68 20.68C81.68 23.68 80 27.75 80 32L80 96C80 100.24 81.68 104.31 84.68 107.31C87.68 110.31 91.75 112 96 112C100.24 112 104.31 110.31 107.31 107.31C110.31 104.31 112 100.24 112 96C112 91.75 110.31 87.68 107.31 84.68C104.31 81.68 100.24 80 96 80L32 80C27.75 80 23.68 81.68 20.68 84.68C17.68 87.68 16 91.75 16 96C16 100.24 17.68 104.31 20.68 107.31C23.68 110.31 27.75 112 32 112C36.24 112 40.31 110.31 43.31 107.31C46.31 104.31 48 100.24 48 96L48 32C48 27.75 46.31 23.68 43.31 20.68C40.31 17.68 36.24 16 32 16C27.75 16 23.68 17.68 20.68 20.68C17.68 23.68 16 27.75 16 32C16 36.24 17.68 40.31 20.68 43.31C23.68 46.31 27.75 48 32 48L96 48C100.24 48 104.31 46.31 107.31 43.31C110.31 40.31 112 36.24 112 32C112 27.75 110.31 23.68 107.31 20.68C104.31 17.68 100.24 16 96 16C91.75 16 87.68 17.68 84.68 20.68Z" stroke="#F2C94C" stroke-opacity="1.000000" stroke-width="2.000000" stroke-linejoin="round"/>
	</g>
</svg>
