<svg width="181.019333" height="181.019287" viewBox="0 0 181.019 181.019" fill="none" xmlns="http://www.w3.org/2000/svg" xmlns:xlink="http://www.w3.org/1999/xlink">
	<desc>
			Created with Pixso.
	</desc>
	<defs>
		<clipPath id="clip1_2672">
			<rect id="icon / outlined / other / tech / command" rx="0.000000" width="127.000000" height="127.000000" transform="translate(0.500000 91.009644) rotate(-45.000000)" fill="white" fill-opacity="0"/>
		</clipPath>
	</defs>
	<g opacity="0.300000">
		<rect id="icon / outlined / other / tech / command" rx="0.000000" width="127.000000" height="127.000000" transform="translate(0.500000 91.009644) rotate(-45.000000)" fill="#FFFFFF" fill-opacity="0"/>
		<g clip-path="url(#clip1_2672)">
			<path id="Vector" d="M74.5 45.25C74.5 49.49 76.19 53.56 79.19 56.56L124.45 101.82C127.45 104.82 131.52 106.51 135.76 106.51C140 106.51 144.07 104.82 147.07 101.82C150.07 98.82 151.76 94.75 151.76 90.5C151.76 86.26 150.07 82.19 147.07 79.19C144.07 76.19 140 74.5 135.76 74.5C131.52 74.5 127.45 76.19 124.45 79.19L79.19 124.45C76.19 127.45 74.5 131.52 74.5 135.76C74.5 140 76.19 144.07 79.19 147.07C82.19 150.07 86.26 151.76 90.5 151.76C94.75 151.76 98.82 150.07 101.82 147.07C104.82 144.07 106.51 140 106.51 135.76C106.51 131.52 104.82 127.45 101.82 124.45L56.56 79.19C53.56 76.19 49.49 74.5 45.25 74.5C41.01 74.5 36.94 76.19 33.94 79.19C30.94 82.19 29.25 86.26 29.25 90.5C29.25 94.75 30.94 98.82 33.94 101.82C36.94 104.82 41.01 106.51 45.25 106.51C49.49 106.51 53.56 104.82 56.56 101.82L101.82 56.56C104.82 53.56 106.51 49.49 106.51 45.25C106.51 41.01 104.82 36.94 101.82 33.94C98.82 30.94 94.75 29.25 90.5 29.25C86.26 29.25 82.19 30.94 79.19 33.94C76.19 36.94 74.5 41.01 74.5 45.25Z" stroke="#F2C94C" stroke-opacity="1.000000" stroke-width="2.000000" stroke-linejoin="round"/>
		</g>
	</g>
</svg>
