<svg width="48.000000" height="48.000000" viewBox="0 0 48 48" fill="none" xmlns="http://www.w3.org/2000/svg" xmlns:xlink="http://www.w3.org/1999/xlink">
	<desc>
			Created with Pixso.
	</desc>
	<defs>
		<clipPath id="clip1_3432">
			<rect id="icon / outlined / other / location / flag" rx="0.000000" width="23.000000" height="23.000000" transform="translate(12.500000 12.500000)" fill="white" fill-opacity="0"/>
		</clipPath>
	</defs>
	<circle id="Ellipse 85" cx="24.000000" cy="24.000000" r="23.500000" stroke="#21965E" stroke-opacity="1.000000" stroke-width="1.000000"/>
	<rect id="icon / outlined / other / location / flag" rx="0.000000" width="23.000000" height="23.000000" transform="translate(12.500000 12.500000)" fill="#FFFFFF" fill-opacity="0"/>
	<g clip-path="url(#clip1_3432)">
		<path id="Vector" d="M20 26C23 26 25 28 28 28C31 28 32 27 32 27L32 15C32 15 31 16 28 16C25 16 23 14 20 14C17 14 16 15 16 15L16 27C16 27 17 26 20 26Z" stroke="#21965E" stroke-opacity="1.000000" stroke-width="1.000000" stroke-linejoin="round"/>
		<path id="Vector" d="M16 34L16 27" stroke="#21965E" stroke-opacity="1.000000" stroke-width="1.000000" stroke-linejoin="round" stroke-linecap="round"/>
	</g>
</svg>
