<svg width="48.000000" height="48.000000" viewBox="0 0 48 48" fill="none" xmlns="http://www.w3.org/2000/svg" xmlns:xlink="http://www.w3.org/1999/xlink">
	<desc>
			Created with Pixso.
	</desc>
	<defs>
		<clipPath id="clip1_3381">
			<rect id="icon / outlined / other / location / map pin" rx="0.000000" width="23.000000" height="23.000000" transform="translate(12.500000 12.500000)" fill="white" fill-opacity="0"/>
		</clipPath>
	</defs>
	<circle id="Ellipse 85" cx="24.000000" cy="24.000000" r="23.500000" stroke="#21965E" stroke-opacity="1.000000" stroke-width="1.000000"/>
	<rect id="icon / outlined / other / location / map pin" rx="0.000000" width="23.000000" height="23.000000" transform="translate(12.500000 12.500000)" fill="#FFFFFF" fill-opacity="0"/>
	<g clip-path="url(#clip1_3381)">
		<path id="Vector" d="M24 35C24 35 15 29 15 22C15 19.61 15.94 17.32 17.63 15.63C19.32 13.94 21.61 13 24 13C26.38 13 28.67 13.94 30.36 15.63C32.05 17.32 33 19.61 33 22C33 29 24 35 24 35Z" stroke="#21965E" stroke-opacity="1.000000" stroke-width="1.000000" stroke-linejoin="round"/>
		<path id="Vector" d="M24 25C22.34 25 21 23.65 21 22C21 20.34 22.34 19 24 19C25.65 19 27 20.34 27 22C27 23.65 25.65 25 24 25Z" stroke="#21965E" stroke-opacity="1.000000" stroke-width="1.000000" stroke-linejoin="round"/>
	</g>
</svg>
