<svg width="48.000000" height="48.000000" viewBox="0 0 48 48" fill="none" xmlns="http://www.w3.org/2000/svg" xmlns:xlink="http://www.w3.org/1999/xlink">
	<desc>
			Created with Pixso.
	</desc>
	<defs>
		<clipPath id="clip1_3358">
			<rect id="icon / outlined / editor / action / copy" rx="0.000000" width="23.000000" height="23.000000" transform="translate(12.500000 12.500000)" fill="white" fill-opacity="0"/>
		</clipPath>
	</defs>
	<circle id="Ellipse 85" cx="24.000000" cy="24.000000" r="23.500000" stroke="#21965E" stroke-opacity="1.000000" stroke-width="1.000000"/>
	<rect id="icon / outlined / editor / action / copy" rx="0.000000" width="23.000000" height="23.000000" transform="translate(12.500000 12.500000)" fill="#FFFFFF" fill-opacity="0"/>
	<g clip-path="url(#clip1_3358)">
		<path id="Vector" d="M32 21C33.1 21 34 21.89 34 23L34 32C34 33.1 33.1 34 32 34L23 34C21.89 34 21 33.1 21 32L21 23C21 21.89 21.89 21 23 21L32 21Z" stroke="#21965E" stroke-opacity="1.000000" stroke-width="1.000000" stroke-linejoin="round"/>
		<path id="Vector" d="M17 27L16 27C15.46 27 14.96 26.78 14.58 26.41C14.21 26.03 14 25.53 14 25L14 16C14 15.46 14.21 14.96 14.58 14.58C14.96 14.21 15.46 14 16 14L25 14C25.53 14 26.03 14.21 26.41 14.58C26.78 14.96 27 15.46 27 16L27 17" stroke="#21965E" stroke-opacity="1.000000" stroke-width="1.000000" stroke-linejoin="round" stroke-linecap="round"/>
	</g>
</svg>
