<svg width="48.000000" height="48.000000" viewBox="0 0 48 48" fill="none" xmlns="http://www.w3.org/2000/svg" xmlns:xlink="http://www.w3.org/1999/xlink">
	<desc>
			Created with Pixso.
	</desc>
	<defs>
		<clipPath id="clip1_4053">
			<rect id="icon / outlined / action / toggle / right" rx="0.000000" width="47.000000" height="47.000000" transform="translate(0.500000 0.500000)" fill="white" fill-opacity="0"/>
		</clipPath>
	</defs>
	<rect id="icon / outlined / action / toggle / right" rx="0.000000" width="47.000000" height="47.000000" transform="translate(0.500000 0.500000)" fill="#FFFFFF" fill-opacity="0"/>
	<g clip-path="url(#clip1_4053)">
		<path id="Vector" d="M32 10C39.73 10 46 16.26 46 24C46 31.73 39.73 38 32 38L16 38C8.26 38 2 31.73 2 24C2 16.26 8.26 10 16 10L32 10Z" stroke="#F2923A" stroke-opacity="1.000000" stroke-width="2.000000" stroke-linejoin="round"/>
		<path id="Vector" d="M32 30C28.68 30 26 27.31 26 24C26 20.68 28.68 18 32 18C35.31 18 38 20.68 38 24C38 27.31 35.31 30 32 30Z" stroke="#F2923A" stroke-opacity="1.000000" stroke-width="2.000000" stroke-linejoin="round"/>
	</g>
</svg>
