<svg width="181.019531" height="181.019531" viewBox="0 0 181.02 181.02" fill="none" xmlns="http://www.w3.org/2000/svg" xmlns:xlink="http://www.w3.org/1999/xlink">
	<desc>
			Created with Pixso.
	</desc>
	<defs>
		<clipPath id="clip1_4059">
			<rect id="icon / outlined / other / tech / command" rx="0.000000" width="127.000000" height="127.000000" transform="translate(0.500000 91.009766) rotate(-45.000000)" fill="white" fill-opacity="0"/>
		</clipPath>
		<clipPath id="clip1_4060">
			<rect id="icon / outlined / other / tech / command" rx="0.000000" width="127.000000" height="127.000000" transform="translate(27.009766 27.009766)" fill="white" fill-opacity="0"/>
		</clipPath>
	</defs>
	<g opacity="0.300000">
		<rect id="icon / outlined / other / tech / command" rx="0.000000" width="127.000000" height="127.000000" transform="translate(0.500000 91.009766) rotate(-45.000000)" fill="#FFFFFF" fill-opacity="0"/>
		<g clip-path="url(#clip1_4059)">
			<path id="Vector" d="M74.5 45.25C74.5 49.49 76.19 53.56 79.19 56.56L124.45 101.82C127.45 104.82 131.52 106.51 135.76 106.51C140 106.51 144.07 104.82 147.07 101.82C150.07 98.82 151.76 94.75 151.76 90.5C151.76 86.26 150.07 82.19 147.07 79.19C144.07 76.19 140 74.5 135.76 74.5C131.52 74.5 127.45 76.19 124.45 79.19L79.19 124.45C76.19 127.45 74.5 131.52 74.5 135.76C74.5 140 76.19 144.07 79.19 147.07C82.19 150.07 86.26 151.76 90.5 151.76C94.75 151.76 98.82 150.07 101.82 147.07C104.82 144.07 106.51 140 106.51 135.76C106.51 131.52 104.82 127.45 101.82 124.45L56.56 79.19C53.56 76.19 49.49 74.5 45.25 74.5C41.01 74.5 36.94 76.19 33.94 79.19C30.94 82.19 29.25 86.26 29.25 90.5C29.25 94.75 30.94 98.82 33.94 101.82C36.94 104.82 41.01 106.51 45.25 106.51C49.49 106.51 53.56 104.82 56.56 101.82L101.82 56.56C104.82 53.56 106.51 49.49 106.51 45.25C106.51 41.01 104.82 36.94 101.82 33.94C98.82 30.94 94.75 29.25 90.5 29.25C86.26 29.25 82.19 30.94 79.19 33.94C76.19 36.94 74.5 41.01 74.5 45.25Z" stroke="#C4D0DF" stroke-opacity="1.000000" stroke-width="2.000000" stroke-linejoin="round"/>
		</g>
	</g>
	<rect id="icon / outlined / other / tech / command" rx="0.000000" width="127.000000" height="127.000000" transform="translate(27.009766 27.009766)" fill="#FFFFFF" fill-opacity="0"/>
	<g clip-path="url(#clip1_4060)">
		<path id="Vector" d="M111.19 47.19C108.19 50.19 106.51 54.26 106.51 58.5L106.51 122.51C106.51 126.75 108.19 130.82 111.19 133.82C114.19 136.82 118.26 138.5 122.51 138.5C126.75 138.5 130.82 136.82 133.82 133.82C136.82 130.82 138.5 126.75 138.5 122.51C138.5 118.26 136.82 114.19 133.82 111.19C130.82 108.19 126.75 106.51 122.51 106.51L58.5 106.51C54.26 106.51 50.19 108.19 47.19 111.19C44.19 114.19 42.5 118.26 42.5 122.51C42.5 126.75 44.19 130.82 47.19 133.82C50.19 136.82 54.26 138.5 58.5 138.5C62.75 138.5 66.82 136.82 69.82 133.82C72.82 130.82 74.5 126.75 74.5 122.51L74.5 58.5C74.5 54.26 72.82 50.19 69.82 47.19C66.82 44.19 62.75 42.5 58.5 42.5C54.26 42.5 50.19 44.19 47.19 47.19C44.19 50.19 42.5 54.26 42.5 58.5C42.5 62.75 44.19 66.82 47.19 69.82C50.19 72.82 54.26 74.5 58.5 74.5L122.51 74.5C126.75 74.5 130.82 72.82 133.82 69.82C136.82 66.82 138.5 62.75 138.5 58.5C138.5 54.26 136.82 50.19 133.82 47.19C130.82 44.19 126.75 42.5 122.51 42.5C118.26 42.5 114.19 44.19 111.19 47.19Z" stroke="#F2923A" stroke-opacity="1.000000" stroke-width="2.000000" stroke-linejoin="round"/>
	</g>
</svg>
