<svg width="64.000000" height="64.000000" viewBox="0 0 64 64" fill="none" xmlns="http://www.w3.org/2000/svg" xmlns:xlink="http://www.w3.org/1999/xlink">
	<desc>
			Created with Pixso.
	</desc>
	<defs>
		<clipPath id="clip1_4077">
			<rect id="Polygon_icon" rx="0.000000" width="63.000000" height="63.000000" transform="translate(0.500000 0.500000)" fill="white" fill-opacity="0"/>
		</clipPath>
		<clipPath id="clip1_4078">
			<rect id="Pin_icon" rx="0.000000" width="23.000000" height="23.000000" transform="translate(20.500000 20.500000)" fill="white" fill-opacity="0"/>
		</clipPath>
	</defs>
	<g clip-path="url(#clip1_4077)">
		<path id="Vector" d="M21.33 8L13.33 8C11.91 8 10.56 8.56 9.56 9.56C8.56 10.56 8 11.91 8 13.33L8 21.33M42.66 56L50.66 56C52.08 56 53.43 55.43 54.43 54.43C55.43 53.43 56 52.08 56 50.66L56 42.66" stroke="#F2994A" stroke-opacity="1.000000" stroke-width="2.000000" stroke-linejoin="round" stroke-linecap="round"/>
		<path id="Vector" d="M56 21.33L56 13.33C56 11.91 55.43 10.56 54.43 9.56C53.43 8.56 52.08 8 50.66 8L42.66 8M8 42.66L8 50.66C8 52.08 8.56 53.43 9.56 54.43C10.56 55.43 11.91 56 13.33 56L21.33 56" stroke="#F2994A" stroke-opacity="1.000000" stroke-width="2.000000" stroke-linejoin="round" stroke-linecap="round"/>
	</g>
	<g clip-path="url(#clip1_4078)">
		<path id="Vector" d="M32 43C32 43 23 37 23 30C23 27.61 23.94 25.32 25.63 23.63C27.32 21.94 29.61 21 32 21C34.38 21 36.67 21.94 38.36 23.63C40.05 25.32 41 27.61 41 30C41 37 32 43 32 43Z" stroke="#F2994A" stroke-opacity="1.000000" stroke-width="2.000000" stroke-linejoin="round"/>
		<path id="Vector" d="M32 34C29.79 34 28 32.2 28 30C28 27.79 29.79 26 32 26C34.2 26 36 27.79 36 30C36 32.2 34.2 34 32 34Z" stroke="#F2994A" stroke-opacity="1.000000" stroke-width="2.000000" stroke-linejoin="round"/>
	</g>
</svg>
