<svg width="64.000000" height="64.000000" viewBox="0 0 64 64" fill="none" xmlns="http://www.w3.org/2000/svg" xmlns:xlink="http://www.w3.org/1999/xlink">
	<desc>
			Created with Pixso.
	</desc>
	<defs>
		<clipPath id="clip1_2230">
			<rect id="icon / outlined / other / tech / git merge" rx="0.000000" width="63.000000" height="63.000000" transform="translate(0.500000 0.500000)" fill="white" fill-opacity="0"/>
		</clipPath>
	</defs>
	<rect id="icon / outlined / other / tech / git merge" rx="0.000000" width="63.000000" height="63.000000" transform="translate(0.500000 0.500000)" fill="#FFFFFF" fill-opacity="0"/>
	<g clip-path="url(#clip1_2230)">
		<path id="Vector" d="M48 56C43.58 56 40 52.41 40 48C40 43.58 43.58 40 48 40C52.41 40 56 43.58 56 48C56 52.41 52.41 56 48 56Z" stroke="#2F37ED" stroke-opacity="1.000000" stroke-width="2.000000" stroke-linejoin="round"/>
		<path id="Vector" d="M16 24C11.58 24 8 20.41 8 16C8 11.58 11.58 8 16 8C20.41 8 24 11.58 24 16C24 20.41 20.41 24 16 24Z" stroke="#2F37ED" stroke-opacity="1.000000" stroke-width="2.000000" stroke-linejoin="round"/>
		<path id="Vector" d="M16 56L16 24C16 30.36 18.52 36.46 23.02 40.97C27.53 45.47 33.63 48 40 48" stroke="#2F37ED" stroke-opacity="1.000000" stroke-width="2.000000" stroke-linejoin="round" stroke-linecap="round"/>
	</g>
</svg>
