<svg width="48.000000" height="48.000000" viewBox="0 0 48 48" fill="none" xmlns="http://www.w3.org/2000/svg" xmlns:xlink="http://www.w3.org/1999/xlink">
	<desc>
			Created with Pixso.
	</desc>
	<defs>
		<clipPath id="clip1_4113">
			<rect id="icon / outlined / other / chart / pie chart" rx="0.000000" width="47.000000" height="47.000000" transform="translate(0.500000 0.500000)" fill="white" fill-opacity="0"/>
		</clipPath>
	</defs>
	<rect id="icon / outlined / other / chart / pie chart" rx="0.000000" width="47.000000" height="47.000000" transform="translate(0.500000 0.500000)" fill="#FFFFFF" fill-opacity="0"/>
	<g clip-path="url(#clip1_4113)">
		<path id="Vector" d="M42.41 31.78C41.14 34.78 39.15 37.44 36.62 39.5C34.08 41.56 31.08 42.97 27.88 43.6C24.68 44.24 21.36 44.08 18.24 43.14C15.11 42.2 12.26 40.51 9.93 38.21C7.61 35.91 5.88 33.08 4.91 29.96C3.93 26.85 3.73 23.54 4.33 20.32C4.93 17.11 6.31 14.1 8.34 11.54C10.37 8.98 13 6.96 16 5.66" stroke="#F2923A" stroke-opacity="1.000000" stroke-width="2.000000" stroke-linejoin="round" stroke-linecap="round"/>
		<path id="Vector" d="M42.47 16.34C41.47 13.91 39.99 11.71 38.14 9.85C36.28 8 34.08 6.52 31.65 5.52C29.22 4.51 26.62 4 24 4L24 24L44 24C44 21.37 43.48 18.77 42.47 16.34Z" stroke="#F2923A" stroke-opacity="1.000000" stroke-width="2.000000" stroke-linejoin="round"/>
	</g>
</svg>
