<svg width="48.000000" height="48.000000" viewBox="0 0 48 48" fill="none" xmlns="http://www.w3.org/2000/svg" xmlns:xlink="http://www.w3.org/1999/xlink">
	<desc>
			Created with Pixso.
	</desc>
	<defs>
		<clipPath id="clip1_4107">
			<rect id="icon / outlined / suggested / circle / check" rx="0.000000" width="47.000000" height="47.000000" transform="translate(0.500000 0.500000)" fill="white" fill-opacity="0"/>
		</clipPath>
	</defs>
	<rect id="icon / outlined / suggested / circle / check" rx="0.000000" width="47.000000" height="47.000000" transform="translate(0.500000 0.500000)" fill="#FFFFFF" fill-opacity="0"/>
	<g clip-path="url(#clip1_4107)">
		<path id="Vector" d="M44 22.15L44 23.99C43.99 28.31 42.6 32.5 40.01 35.96C37.43 39.41 33.8 41.94 29.67 43.16C25.53 44.39 21.11 44.24 17.06 42.74C13.02 41.25 9.56 38.49 7.22 34.87C4.87 31.25 3.75 26.97 4.04 22.67C4.32 18.36 5.99 14.27 8.79 10.99C11.59 7.71 15.38 5.43 19.59 4.47C23.79 3.52 28.2 3.96 32.14 5.71" stroke="#F2923A" stroke-opacity="1.000000" stroke-width="2.000000" stroke-linejoin="round" stroke-linecap="round"/>
		<path id="Vector" d="M44 8L24 28.02L18 22.02" stroke="#F2923A" stroke-opacity="1.000000" stroke-width="2.000000" stroke-linejoin="round" stroke-linecap="round"/>
	</g>
</svg>
