<svg width="64.000000" height="64.000000" viewBox="0 0 64 64" fill="none" xmlns="http://www.w3.org/2000/svg" xmlns:xlink="http://www.w3.org/1999/xlink">
	<desc>
			Created with Pixso.
	</desc>
	<defs>
		<clipPath id="clip1_2517">
			<rect id="ToCloud" rx="0.000000" width="63.000000" height="63.000000" transform="translate(0.500000 0.500000)" fill="white" fill-opacity="0"/>
		</clipPath>
	</defs>
	<rect id="ToCloud" rx="0.000000" width="63.000000" height="63.000000" transform="translate(0.500000 0.500000)" fill="#FFFFFF" fill-opacity="0"/>
	<g clip-path="url(#clip1_2517)">
		<path id="Vector" d="M42.66 42.66L32 32L21.33 42.66" stroke="#F2923A" stroke-opacity="1.000000" stroke-width="2.000000" stroke-linejoin="round" stroke-linecap="round"/>
		<path id="Vector" d="M32 32L32 56" stroke="#F2923A" stroke-opacity="1.000000" stroke-width="2.000000" stroke-linejoin="round" stroke-linecap="round"/>
		<path id="Vector" d="M54.37 49.04C56.97 47.62 59.02 45.37 60.21 42.66C61.39 39.94 61.64 36.91 60.91 34.04C60.18 31.17 58.51 28.62 56.17 26.8C53.83 24.99 50.96 24 48 24L44.64 24C43.83 20.87 42.32 17.97 40.23 15.52C38.15 13.06 35.53 11.11 32.58 9.81C29.63 8.51 26.42 7.9 23.2 8.02C19.97 8.13 16.82 8.98 13.97 10.5C11.12 12.01 8.66 14.15 6.75 16.75C4.85 19.36 3.56 22.36 2.99 25.53C2.41 28.7 2.57 31.96 3.43 35.07C4.3 38.18 5.86 41.05 8 43.46" stroke="#F2923A" stroke-opacity="1.000000" stroke-width="2.000000" stroke-linejoin="round" stroke-linecap="round"/>
		<path id="Vector" d="M42.66 42.66L32 32L21.33 42.66" stroke="#F2923A" stroke-opacity="1.000000" stroke-width="2.000000" stroke-linejoin="round" stroke-linecap="round"/>
	</g>
</svg>
