<svg width="64.000000" height="64.000000" viewBox="0 0 64 64" fill="none" xmlns="http://www.w3.org/2000/svg" xmlns:xlink="http://www.w3.org/1999/xlink">
	<desc>
			Created with Pixso.
	</desc>
	<defs>
		<clipPath id="clip1_2513">
			<rect id="Server" rx="0.000000" width="63.000000" height="63.000000" transform="translate(0.500000 0.500000)" fill="white" fill-opacity="0"/>
		</clipPath>
	</defs>
	<rect id="Server" rx="0.000000" width="63.000000" height="63.000000" transform="translate(0.500000 0.500000)" fill="#FFFFFF" fill-opacity="0"/>
	<g clip-path="url(#clip1_2513)">
		<path id="Vector" d="M53.33 5.33C56.27 5.33 58.66 7.72 58.66 10.66L58.66 21.33C58.66 24.27 56.27 26.66 53.33 26.66L10.66 26.66C7.72 26.66 5.33 24.27 5.33 21.33L5.33 10.66C5.33 7.72 7.72 5.33 10.66 5.33L53.33 5.33Z" stroke="#F2923A" stroke-opacity="1.000000" stroke-width="2.000000" stroke-linejoin="round"/>
		<path id="Vector" d="M53.33 37.33C56.27 37.33 58.66 39.72 58.66 42.66L58.66 53.33C58.66 56.27 56.27 58.66 53.33 58.66L10.66 58.66C7.72 58.66 5.33 56.27 5.33 53.33L5.33 42.66C5.33 39.72 7.72 37.33 10.66 37.33L53.33 37.33Z" stroke="#F2923A" stroke-opacity="1.000000" stroke-width="2.000000" stroke-linejoin="round"/>
		<path id="Vector" d="M16 16L16.02 16" stroke="#F2923A" stroke-opacity="1.000000" stroke-width="4.000000" stroke-linejoin="round" stroke-linecap="round"/>
		<path id="Vector" d="M16 48L16.02 48" stroke="#F2923A" stroke-opacity="1.000000" stroke-width="4.000000" stroke-linejoin="round" stroke-linecap="round"/>
	</g>
</svg>
