<svg width="3.996094" height="3.942383" viewBox="0 0 3.99609 3.94238" fill="none" xmlns="http://www.w3.org/2000/svg" xmlns:xlink="http://www.w3.org/1999/xlink">
	<desc>
			Created with Pixso.
	</desc>
	<defs/>
	<path id="•‎" d="M3.41 0.54C3.03 0.18 2.57 0 2.03 0Q1.48 0 1.03 0.22Q0.78 0.34 0.57 0.54Q0.44 0.66 0.34 0.8Q-1.17e-5 1.27 -1.17e-5 1.99Q-1.17e-5 2.48 0.17 2.86C0.29 3.1 0.44 3.3 0.62 3.47Q0.82 3.63 1.03 3.73Q1.14 3.79 1.25 3.83Q1.6 3.94 2.01 3.94Q2.48 3.94 2.87 3.76Q3.15 3.64 3.4 3.42Q3.61 3.22 3.75 2.99Q3.99 2.56 3.99 1.99Q3.99 1.27 3.65 0.8Q3.55 0.66 3.41 0.54Z" fill="#70839E" fill-opacity="1.000000" fill-rule="evenodd"/>
</svg>
