<svg width="1312" height="616" viewBox="0 0 1312 616" fill="none" xmlns="http://www.w3.org/2000/svg">
<g opacity="0.5">
<mask id="mask0_1_1586" style="mask-type:alpha" maskUnits="userSpaceOnUse" x="0" y="0" width="1312" height="616">
<rect width="1312" height="616" rx="24" fill="#2F3541"/>
</mask>
<g mask="url(#mask0_1_1586)">
<path d="M1262.92 -230.544L1137.09 60.2569" stroke="#2F3541" stroke-width="3" stroke-dasharray="1 5"/>
<path d="M385.855 -228.68L415.681 -57.1816L400.768 12.7224L295.446 304.456L287.99 442.4V492.731L286.126 601.781L281.465 769.551L280.533 916.815L269.349 932.66V981.127L280.533 1004.43L281.465 1138.64" stroke="#2F3541" stroke-width="3" stroke-dasharray="1 5"/>
<path d="M-299.204 121.773L-19.5873 209.387L295.447 308.184" stroke="#2F3541" stroke-width="3" stroke-dasharray="1 5"/>
<path d="M-302 45.3441L-260.99 9.92598L-222.775 -5.91895H-176.173L14.8987 51.8684L76.4143 75.1698L332.729 201.929L457.625 264.377L544.306 315.64L721.396 396.729L741.902 406.049L771.727 413.506L802.485 407.913L1014.06 306.319L1030.84 292.339L1039.23 278.358L1060.66 194.473L1083.97 124.569L1097.01 90.0827L1103.54 80.7621L1219.11 74.2378" stroke="#2F3541" stroke-width="3" stroke-dasharray="1 5"/>
<path d="M-207.862 -227.748L-116.521 -197.922L163.096 -114.969L276.806 -83.2793L322.477 -73.9587L413.818 -51.5894L526.597 -6.85082L625.395 35.0916L628.191 51.8686L639.376 63.0532L651.493 64.9174L673.862 56.5289L836.039 125.501V137.618L843.496 152.53L858.409 159.055L883.574 146.938L994.489 191.677L1055.07 216.842L1092.35 230.823L1127.77 240.144L1215.39 267.173L1224.71 264.377L1246.14 196.337L1278.77 95.6751L1332.82 -81.4152L1381.29 -235.204" stroke="#2F3541" stroke-width="3" stroke-dasharray="1 5"/>
<path d="M-81.103 493.663L24.2191 503.915H54.0448L291.719 493.663L516.344 478.75L685.045 485.274L701.822 496.459V511.372L685.977 654.908L687.842 700.579L777.319 913.087L821.125 917.748L847.223 938.253L876.117 955.03L910.603 969.011L932.972 962.486L976.778 926.136L1128.7 786.328L1138.96 783.532L1156.66 794.716L1172.51 799.377H1214.45L1282.49 793.784L1368.24 788.192L1411.12 774.211L1455.85 746.25L1484.75 708.035L1502.46 664.229L1534.15 502.983L1532.28 482.478L1465.17 386.476L1458.65 363.175L1463.31 325.893L1511.78 195.405V174.9L1504.32 162.783L1467.97 149.735L1219.11 74.2382L1171.58 63.0536L1138.96 60.2574L1098.88 64.9177L1060.66 60.2574L1042.02 48.1407L1039.23 34.1599L1093.29 -91.6674L754.017 -238" stroke="#2F3541" stroke-width="3" stroke-dasharray="1 5"/>
<path d="M-91.3555 489.003L-82.967 462.905L-48.481 420.963L-41.0245 388.341L-20.5193 209.386L13.9667 50.937L19.559 34.16L35.4039 18.3151L88.531 -24.5595L117.425 -51.589L162.163 -114.969" stroke="#2F3541" stroke-width="3" stroke-dasharray="1 5"/>
<path d="M401.701 -225.883L1015.93 33.2281L1060.66 60.2577" stroke="#2F3541" stroke-width="3" stroke-dasharray="1 5"/>
<path d="M625.394 34.16L645.899 25.7715L661.744 30.4318L673.86 55.5972" stroke="#2F3541" stroke-width="3" stroke-dasharray="1 5"/>
<path d="M835.105 122.706L849.086 114.317L861.203 112.453L877.98 119.91L884.504 146.007" stroke="#2F3541" stroke-width="3" stroke-dasharray="1 5"/>
<path d="M757.746 410.71L751.221 428.419L713.939 474.09L701.822 498.323" stroke="#2F3541" stroke-width="3" stroke-dasharray="1 5"/>
<path d="M1017.79 -231.476L868.66 114.317" stroke="#2F3541" stroke-width="3" stroke-dasharray="1 5"/>
<path d="M884.505 -229.611L670.133 274.63L702.755 290.475L714.871 306.32L727.92 331.485L739.105 405.118L730.716 419.098L693.434 463.837L681.317 499.255L661.744 665.161L664.54 678.209L712.075 798.444L716.735 824.542L703.687 845.047L699.958 853.436V900.038" stroke="#2F3541" stroke-width="3" stroke-dasharray="1 5"/>
<path d="M-300.136 584.071L-160.328 575.683L-26.112 592.46L17.6946 598.052L668.269 607.372L692.503 598.984" stroke="#2F3541" stroke-width="3" stroke-dasharray="1 5"/>
<path d="M-298.271 469.429L-263.785 472.225L-146.346 483.41L-82.9667 492.73L12.1029 515.099L21.4235 531.876L17.6952 622.286L9.30674 661.432L-27.0434 695.918L-63.3936 722.947L-82.9667 758.365L-95.0834 797.512L-100.676 898.173L-114.657 927.999L-172.444 996.971L-185.493 1049.17V1073.4L-175.24 1137.71" stroke="#2F3541" stroke-width="3" stroke-dasharray="1 5"/>
<path d="M737.241 396.729L785.708 399.525L801.552 393.933L819.261 380.884L863.068 331.485L935.768 296.067L1020.59 255.057L1051.34 214.979" stroke="#2F3541" stroke-width="3" stroke-dasharray="1 5"/>
<path d="M1296.47 1132.12L1420.44 1033.32L1442.81 1016.54L1499.66 978.33L1540.67 936.388L1632.01 812.425L1678.62 736.928L1701.92 691.258L1733.61 581.275L1771.82 524.42L1781.14 510.439L1792.33 484.342L1801.65 460.108L1813.76 388.34L1853.84 288.611L1897.65 181.424L1909.76 113.384L1923.75 76.1023L1994.58 -49.725L2107.36 -229.611" stroke="#2F3541" stroke-width="3" stroke-dasharray="1 5"/>
</g>
</g>
</svg>
