<svg width="48.000000" height="48.000000" viewBox="0 0 48 48" fill="none" xmlns="http://www.w3.org/2000/svg" xmlns:xlink="http://www.w3.org/1999/xlink">
	<desc>
			Created with Pixso.
	</desc>
	<defs>
		<clipPath id="clip1_4316">
			<rect id="icon / outlined / other / chart / pie chart" rx="0.000000" width="23.000000" height="23.000000" transform="translate(12.500000 12.500000)" fill="white" fill-opacity="0"/>
		</clipPath>
	</defs>
	<circle id="Ellipse 85" cx="24.000000" cy="24.000000" r="23.500000" stroke="#F2994A" stroke-opacity="1.000000" stroke-width="1.000000"/>
	<g clip-path="url(#clip1_4316)">
		<path id="Vector" d="M33.21 27.88C32.57 29.39 31.57 30.72 30.31 31.75C29.04 32.78 27.54 33.48 25.94 33.8C24.33 34.12 22.68 34.04 21.12 33.57C19.55 33.1 18.13 32.25 16.96 31.1C15.8 29.95 14.94 28.54 14.45 26.98C13.96 25.42 13.86 23.77 14.16 22.16C14.46 20.55 15.15 19.05 16.17 17.77C17.18 16.49 18.5 15.48 20 14.83" stroke="#F2994A" stroke-opacity="1.000000" stroke-width="1.000000" stroke-linejoin="round" stroke-linecap="round"/>
		<path id="Vector" d="M33.23 20.17C32.73 18.95 31.99 17.85 31.07 16.92C30.14 16 29.04 15.26 27.82 14.76C26.61 14.25 25.31 14 24 14L24 24L34 24C34 22.68 33.74 21.38 33.23 20.17Z" stroke="#F2994A" stroke-opacity="1.000000" stroke-width="1.000000" stroke-linejoin="round"/>
	</g>
</svg>
