<svg width="48.000000" height="48.000000" viewBox="0 0 48 48" fill="none" xmlns="http://www.w3.org/2000/svg" xmlns:xlink="http://www.w3.org/1999/xlink">
	<desc>
			Created with Pixso.
	</desc>
	<defs>
		<clipPath id="clip1_4097">
			<rect id="icon / outlined / other / tech / cpu" rx="0.000000" width="23.000000" height="23.000000" transform="translate(12.500000 12.500000)" fill="white" fill-opacity="0"/>
		</clipPath>
	</defs>
	<circle id="Ellipse 85" cx="24.000000" cy="24.000000" r="23.500000" stroke="#F2994A" stroke-opacity="1.000000" stroke-width="1.000000"/>
	<rect id="icon / outlined / other / tech / cpu" rx="0.000000" width="23.000000" height="23.000000" transform="translate(12.500000 12.500000)" fill="#FFFFFF" fill-opacity="0"/>
	<g clip-path="url(#clip1_4097)">
		<path id="Vector" d="M30 16C31.1 16 32 16.89 32 18L32 30C32 31.1 31.1 32 30 32L18 32C16.89 32 16 31.1 16 30L16 18C16 16.89 16.89 16 18 16L30 16Z" stroke="#F2994A" stroke-opacity="1.000000" stroke-width="1.000000" stroke-linejoin="round"/>
		<path id="Vector" d="M27 21L27 27L21 27L21 21L27 21Z" stroke="#F2994A" stroke-opacity="1.000000" stroke-width="1.000000" stroke-linejoin="round"/>
		<path id="Vector" d="M21 13L21 16" stroke="#F2994A" stroke-opacity="1.000000" stroke-width="1.000000" stroke-linejoin="round" stroke-linecap="round"/>
		<path id="Vector" d="M27 13L27 16" stroke="#F2994A" stroke-opacity="1.000000" stroke-width="1.000000" stroke-linejoin="round" stroke-linecap="round"/>
		<path id="Vector" d="M21 32L21 35" stroke="#F2994A" stroke-opacity="1.000000" stroke-width="1.000000" stroke-linejoin="round" stroke-linecap="round"/>
		<path id="Vector" d="M27 32L27 35" stroke="#F2994A" stroke-opacity="1.000000" stroke-width="1.000000" stroke-linejoin="round" stroke-linecap="round"/>
		<path id="Vector" d="M32 21L35 21" stroke="#F2994A" stroke-opacity="1.000000" stroke-width="1.000000" stroke-linejoin="round" stroke-linecap="round"/>
		<path id="Vector" d="M32 26L35 26" stroke="#F2994A" stroke-opacity="1.000000" stroke-width="1.000000" stroke-linejoin="round" stroke-linecap="round"/>
		<path id="Vector" d="M13 21L16 21" stroke="#F2994A" stroke-opacity="1.000000" stroke-width="1.000000" stroke-linejoin="round" stroke-linecap="round"/>
		<path id="Vector" d="M13 26L16 26" stroke="#F2994A" stroke-opacity="1.000000" stroke-width="1.000000" stroke-linejoin="round" stroke-linecap="round"/>
	</g>
</svg>
