<svg width="32" height="32" viewBox="0 0 32 32" fill="none" xmlns="http://www.w3.org/2000/svg">
<rect width="32" height="32" rx="4" fill="#0D0E10"/>
<path d="M23.9848 11.1547C23.7932 10.438 23.2282 9.87301 22.5115 9.68134C21.2115 9.33301 15.9998 9.33301 15.9998 9.33301C15.9998 9.33301 10.7882 9.33301 9.48817 9.68134C8.7715 9.87301 8.2065 10.438 8.01484 11.1547C7.6665 12.4547 7.6665 15.9997 7.6665 15.9997C7.6665 15.9997 7.6665 19.5447 8.01484 20.8447C8.2065 21.5613 8.7715 22.1263 9.48817 22.318C10.7882 22.6663 15.9998 22.6663 15.9998 22.6663C15.9998 22.6663 21.2115 22.6663 22.5115 22.318C23.229 22.1263 23.7932 21.5613 23.9848 20.8447C24.3332 19.5447 24.3332 15.9997 24.3332 15.9997C24.3332 15.9997 24.3332 12.4547 23.9848 11.1547ZM14.3332 18.1647V13.8347C14.3332 13.5138 14.6807 13.3138 14.9582 13.4738L18.7082 15.6388C18.9857 15.7988 18.9857 16.2005 18.7082 16.3605L14.9582 18.5255C14.6807 18.6863 14.3332 18.4855 14.3332 18.1647Z" fill="white"/>
</svg>
