<svg width="1320" height="864" viewBox="0 0 1320 864" fill="none" xmlns="http://www.w3.org/2000/svg">
<g opacity="0.4">
<path d="M1266.92 -230.543L1141.09 60.2574" stroke="#AB1438" stroke-width="3" stroke-dasharray="1 5"/>
<path d="M389.855 -228.679L419.681 -57.1812L404.768 12.7229L299.446 304.456L291.99 442.4V492.731L290.125 601.781L285.465 769.551L284.533 916.816L273.349 932.661V981.128L284.533 1004.43L285.465 1138.64" stroke="#AB1438" stroke-width="3" stroke-dasharray="1 5"/>
<path d="M-295.204 121.773L-15.5876 209.386L299.447 308.184" stroke="#AB1438" stroke-width="3" stroke-dasharray="1 5"/>
<path d="M-298 45.3441L-256.99 9.92598L-218.775 -5.91895H-172.173L18.8987 51.8684L80.4143 75.1698L336.729 201.929L461.625 264.377L548.306 315.64L725.396 396.729L745.902 406.049L775.727 413.506L806.485 407.913L1018.06 306.319L1034.84 292.339L1043.23 278.358L1064.66 194.473L1087.97 124.569L1101.01 90.0827L1107.54 80.7621L1223.11 74.2378" stroke="#AB1438" stroke-width="3" stroke-dasharray="1 5"/>
<path d="M-203.862 -227.747L-112.521 -197.921L167.096 -114.969L280.807 -83.2788L326.477 -73.9582L417.819 -51.5889L530.597 -6.85033L629.395 35.0921L632.191 51.8691L643.376 63.0537L655.493 64.9178L677.862 56.5294L840.04 125.501V137.618L847.496 152.531L862.409 159.055L887.574 146.939L998.489 191.677L1059.07 216.843L1096.35 230.823L1131.77 240.144L1219.39 267.174L1228.71 264.377L1250.14 196.337L1282.77 95.6756L1336.83 -81.4147L1385.29 -235.204" stroke="#AB1438" stroke-width="3" stroke-dasharray="1 5"/>
<path d="M-77.103 493.663L28.2191 503.915H58.0448L295.719 493.663L520.344 478.75L689.045 485.274L705.822 496.459V511.372L689.977 654.908L691.842 700.579L781.319 913.087L825.125 917.748L851.223 938.253L880.117 955.03L914.603 969.011L936.972 962.486L980.778 926.136L1132.7 786.328L1142.96 783.532L1160.66 794.716L1176.51 799.377H1218.45L1286.49 793.784L1372.24 788.192L1415.12 774.211L1459.85 746.25L1488.75 708.035L1506.46 664.229L1538.15 502.983L1536.28 482.478L1469.17 386.476L1462.65 363.175L1467.31 325.893L1515.78 195.405V174.9L1508.32 162.783L1471.97 149.735L1223.11 74.2382L1175.58 63.0536L1142.96 60.2574L1102.88 64.9177L1064.66 60.2574L1046.02 48.1407L1043.23 34.1599L1097.29 -91.6674L758.017 -238" stroke="#AB1438" stroke-width="3" stroke-dasharray="1 5"/>
<path d="M-87.3555 489.003L-78.967 462.906L-44.481 420.963L-37.0245 388.341L-16.5193 209.387L17.9667 50.9375L23.559 34.1605L39.4039 18.3155L92.531 -24.559L121.425 -51.5886L166.163 -114.968" stroke="#AB1438" stroke-width="3" stroke-dasharray="1 5"/>
<path d="M405.701 -225.883L1019.93 33.2276L1064.66 60.2572" stroke="#AB1438" stroke-width="3" stroke-dasharray="1 5"/>
<path d="M629.393 34.16L649.899 25.7715L665.744 30.4318L677.86 55.5972" stroke="#AB1438" stroke-width="3" stroke-dasharray="1 5"/>
<path d="M839.106 122.705L853.087 114.317L865.203 112.453L881.98 119.909L888.505 146.007" stroke="#AB1438" stroke-width="3" stroke-dasharray="1 5"/>
<path d="M761.745 410.709L755.221 428.419L717.939 474.089L705.822 498.323" stroke="#AB1438" stroke-width="3" stroke-dasharray="1 5"/>
<path d="M1021.79 -231.476L872.66 114.317" stroke="#AB1438" stroke-width="3" stroke-dasharray="1 5"/>
<path d="M888.506 -229.611L674.133 274.63L706.755 290.475L718.872 306.32L731.92 331.485L743.105 405.118L734.716 419.098L697.434 463.837L685.318 499.255L665.744 665.161L668.541 678.209L716.075 798.444L720.736 824.542L707.687 845.047L703.959 853.436V900.038" stroke="#AB1438" stroke-width="3" stroke-dasharray="1 5"/>
<path d="M-25.8403 698.713L24.4907 694.985L60.8408 706.17L101.851 732.267L136.337 767.685L154.978 794.715L171.755 827.337L277.078 927.066" stroke="#AB1438" stroke-width="3" stroke-dasharray="1 5"/>
<path d="M19.8308 633.47L38.4719 678.209L59.9092 706.17" stroke="#AB1438" stroke-width="3" stroke-dasharray="1 5"/>
<path d="M-296.136 584.071L-156.328 575.683L-22.1117 592.46L21.6948 598.052L672.269 607.372L696.503 598.984" stroke="#AB1438" stroke-width="3" stroke-dasharray="1 5"/>
<path d="M-294.272 469.429L-259.786 472.225L-142.347 483.41L-78.9668 492.731L16.1028 515.1L25.4233 531.877L21.6951 622.286L13.3066 661.432L-23.0435 695.918L-59.3937 722.948L-78.9668 758.366L-91.0836 797.512L-96.6759 898.174L-110.657 928L-168.444 996.972L-181.493 1049.17V1073.4L-171.24 1137.71" stroke="#AB1438" stroke-width="3" stroke-dasharray="1 5"/>
<path d="M741.241 396.729L789.708 399.525L805.552 393.933L823.261 380.884L867.068 331.485L939.768 296.067L1024.59 255.056L1055.34 214.978" stroke="#AB1438" stroke-width="3" stroke-dasharray="1 5"/>
<path d="M1300.47 1132.12L1424.44 1033.32L1446.81 1016.54L1503.66 978.33L1544.67 936.388L1636.01 812.425L1682.62 736.928L1705.92 691.258L1737.61 581.275L1775.82 524.42L1785.14 510.439L1796.33 484.342L1805.65 460.108L1817.76 388.34L1857.84 288.611L1901.65 181.424L1913.77 113.384L1927.75 76.1023L1998.58 -49.725L2111.36 -229.611" stroke="#AB1438" stroke-width="3" stroke-dasharray="1 5"/>
</g>
</svg>
